<?xml version="1.0" encoding="UTF-8"?>
<svg id="coloured" width="4e3" height="2e3" version="1.1" viewBox="0 0 4e3 2e3" xmlns="http://www.w3.org/2000/svg">
 <defs>
  <linearGradient id="linear-gradient" x1="3625.5" x2="466.46" y1="1773.6" y2="1795.3" gradientTransform="translate(0 -1e3)" gradientUnits="userSpaceOnUse">
   <stop stop-color="#010025" offset=".20426"/>
   <stop stop-color="#2398aa" offset=".71885"/>
   <stop stop-color="#8cdecd" offset="1"/>
  </linearGradient>
  <linearGradient id="linear-gradient-2" x1="3007.6" x2="3007.6" y1="1229.6" y2="86.157" gradientUnits="userSpaceOnUse">
   <stop stop-color="#010025" offset="0"/>
   <stop stop-color="#010025" stop-opacity=".97" offset=".68843"/>
   <stop stop-color="#010025" stop-opacity="0" offset="1"/>
  </linearGradient>
 </defs>
 <path d="m485.84 1107.2c49.143-53.111 101.33-103.54 156.04-151.21 6.7251-6.0956 13.721-11.867 20.648-17.725l20.85-17.506c3.4936-2.8963 6.9204-5.8792 10.47-8.705l10.647-8.4855 21.305-16.976c28.597-22.397 57.784-44.077 87.509-65.026l11.112-7.9117c3.7358-2.5902 7.5308-5.0923 11.294-7.6429l22.633-15.237 11.321-7.6199c3.7817-2.5288 7.6538-4.9139 11.478-7.3782l23.018-14.675 11.514-7.3385c1.9097-1.2396 3.8691-2.395 5.8203-3.5654l5.8535-3.5107 23.421-14.044 11.715-7.0224c1.9424-1.1888 3.9209-2.3138 5.9053-3.4283l5.9414-3.3656 23.773-13.463c63.574-35.6 129.06-67.892 196.06-96.774 133.99-57.814 274.08-101.83 417.22-131.37 143.14-29.559 289.34-44.577 435.57-44.854 146.23-0.2412 292.48 14.288 435.72 43.321 71.626 14.488 142.48 32.667 212.23 54.32 69.726 21.71 138.35 46.892 205.43 75.57 67.088 28.666 132.7 60.693 196.38 96.097 63.728 35.314 125.54 73.952 185.18 115.57 59.6 41.676 117.03 86.328 171.87 133.84 54.856 47.49 107.21 97.745 156.53 150.69l-24.198 24.264c-52.368-48.33-106.54-94.491-162.65-138-56.127-43.488-114.1-84.425-173.85-122.45-59.703-38.082-121.16-73.255-184.06-105.48-62.942-32.135-127.3-61.372-192.88-87.403-131.16-52.09-267.12-91.594-405.52-117.9-138.4-26.311-279.22-39.444-420.02-39.16-140.8 0.337-281.56 14.053-419.85 40.903-138.29 26.832-274.08 66.89-405.05 119.43-65.482 26.281-129.75 55.699-192.57 88.062l-23.504 12.25-5.878 3.0629c-1.9633 1.0135-3.9214 2.0376-5.8432 3.1257l-11.597 6.4175-23.203 12.836-5.8027 3.2092c-1.9346 1.0694-3.8765 2.1265-5.772 3.2629l-11.456 6.6776-22.923 13.357c-3.8101 2.2451-7.6699 4.4113-11.44 6.7215l-11.292 6.9651-22.594 13.933c-3.7593 2.3339-7.5513 4.6194-11.285 6.9933l-11.129 7.2346c-29.849 19.049-59.165 38.954-88.105 59.426l-21.602 15.51-10.807 7.7574c-3.605 2.5837-7.0879 5.3255-10.639 7.9809l-21.227 16.048c-7.0806 5.3471-14.235 10.609-21.125 16.2-55.998 43.659-110.06 89.947-162.33 138.39l-24.264-24.198z" fill="url(#linear-gradient)"/>
 <g fill="#010025">
  <path d="m670.98 1743.5-54.115-129.05h-200.54l-53.761 129.05h-81.703l195.24-448.91h83.118l194.53 448.91zm-74.982-187.15-52.346-127.82c-1.6523-4.6875-4.189-11.668-7.6045-20.947-3.4209-9.2744-6.897-18.854-10.434-28.745-3.5366-9.8858-6.4878-18.09-8.8418-24.617-2.3599 8.3618-5.1289 17.431-8.312 27.216-3.1831 9.7852-6.2505 18.912-9.1958 27.369-2.9512 8.462-5.3662 15.037-7.251 19.724l-52.7 127.82z"/>
  <path d="m1249.1 1347.8c-25.941 0-49.047 3.9751-69.322 11.926-20.283 7.9507-37.492 19.418-51.641 34.402-14.146 14.984-24.934 33.131-32.361 54.432-7.4277 21.306-11.143 45.21-11.143 71.709 0 35.272 5.9531 65.747 17.861 91.433 11.904 25.688 29.943 45.464 54.115 59.325 24.168 13.866 54.646 20.794 91.43 20.794 22.16 0 43.559-1.7822 64.195-5.3516 20.629-3.5644 41.674-8.3037 63.133-14.22v57.49c-20.281 6.9327-41.088 11.979-62.426 15.137-21.344 3.1582-46.041 4.7402-74.098 4.7402-52.822 0-96.68-9.4795-131.57-28.44-34.899-18.959-60.956-45.611-78.166-79.966-17.215-34.35-25.819-74.868-25.819-121.55 0-33.838 5.4214-64.776 16.27-92.81 10.843-28.028 26.704-52.292 47.571-72.78 20.868-20.488 46.565-36.285 77.104-47.398 30.533-11.109 65.609-16.666 105.22-16.666 25.936 0 51.342 2.4463 76.221 7.3394 24.875 4.8925 47.805 11.826 68.793 20.794l-27.941 55.961c-17.684-7.1338-36.314-13.302-55.883-18.5-19.574-5.1988-40.09-7.7979-61.543-7.7979z"/>
  <path d="m1865.8 1743.5h-78.52v-389.28h-154.56v-57.795h387.29v57.795h-154.21z"/>
  <path d="m2447.9 1296.4c44.09 0 80.52 4.6919 109.29 14.066 28.766 9.3794 50.225 23.546 64.372 42.506 14.147 18.959 21.222 43.017 21.222 72.168 0 22.629-4.7754 41.741-14.325 57.337-9.5488 15.595-22.105 28.439-37.668 38.53s-32.186 17.994-49.87 23.699l145.37 198.77h-88.776l-125.21-181.03h-89.838v181.03h-78.165v-447.08zm-4.9521 56.878h-60.481v153.2h65.08c40.083 0 69.323-6.6748 87.715-20.03 18.392-13.35 27.588-32.974 27.588-58.866 0-26.91-9.7871-46.022-29.356-57.337-19.574-11.314-49.754-16.972-90.545-16.972z"/>
  <path d="m2968.4 1743.5v-447.08h78.165v447.08z"/>
  <path d="m3686.6 1622.7c0 26.504-7.5488 49.233-22.636 68.193-15.093 18.959-36.491 33.484-64.195 43.575-27.709 10.092-60.779 15.138-99.21 15.138-18.867 0-36.961-0.8701-54.292-2.5996-17.33-1.7344-33.484-4.3291-48.455-7.7979-14.976-3.4638-28.594-7.6445-40.852-12.537v-63.912c20.276 7.5449 43.267 14.372 68.97 20.488 25.698 6.1162 52.225 9.1738 79.581 9.1738 22.868 0 42.028-2.6464 57.475-7.9502 15.44-5.2988 26.996-12.844 34.661-22.629 7.6602-9.7861 11.495-21.406 11.495-34.861 0-13.861-4.0674-25.482-12.202-34.86-8.1348-9.375-20.691-18.042-37.668-25.993-16.978-7.9507-38.79-16.408-65.433-25.381-18.393-6.1157-35.491-12.996-51.285-20.641-15.801-7.645-29.595-16.56-41.382-26.757-11.794-10.191-21.045-22.218-27.766-36.084-6.7198-13.861-10.08-29.968-10.08-48.316 0-24.87 7.0742-46.175 21.222-63.912 14.147-17.736 33.894-31.344 59.243-40.824 25.345-9.48 54.762-14.22 88.246-14.22 27.351 0 52.932 2.399 76.751 7.1865 23.814 4.792 46.803 11.467 68.97 20.029l-24.759 55.044c-20.514-7.1333-40.851-12.996-61.012-17.583-20.16-4.5869-40.851-6.8804-62.072-6.8804-19.1 0-35.253 2.499-48.456 7.4917-13.208 4.9981-23.228 11.979-30.064 20.947-6.8418 8.9731-10.257 19.571-10.257 31.803 0 13.866 3.7138 25.381 11.142 34.555 7.4267 9.1738 19.154 17.584 35.191 25.228 16.032 7.6446 36.9 15.854 62.604 24.616 28.766 9.9912 53.347 20.541 73.745 31.65 20.392 11.114 35.954 24.416 46.686 39.906 10.728 15.496 16.093 35.066 16.093 58.713z"/>
 </g>
 <line x1="3007.6" x2="3007.6" y1="86.157" y2="1229.6" fill="none" stroke="url(#linear-gradient-2)" stroke-width="78"/>
</svg>
