<?xml version="1.0" encoding="UTF-8"?>
<!-- Created with Inkscape (http://www.inkscape.org/) -->
<svg width="747.56" height="386.01" version="1.1" viewBox="0 0 747.56 386.01" xml:space="preserve" xmlns="http://www.w3.org/2000/svg"><defs><clipPath id="clipPath18"><path d="m2357 380.18c0-126.56-102.61-229.18-229.19-229.18-126.57 0-229.19 102.62-229.19 229.18 0 126.58 102.62 229.19 229.19 229.19 126.58 0 229.19-102.61 229.19-229.19z"/></clipPath><linearGradient id="linearGradient24" x2="1" gradientTransform="matrix(-876.16 -646.89 646.89 -876.16 2397.7 579.5)" gradientUnits="userSpaceOnUse"><stop stop-color="#fff" offset="0"/><stop stop-color="#00abb8" offset="1"/></linearGradient><clipPath id="clipPath34"><path d="m2708.2 1714.8c0-82.86-67.15-150.01-150-150.01-82.84 0-150.01 67.15-150.01 150.01 0 82.83 67.17 150 150.01 150 82.85 0 150-67.17 150-150z"/></clipPath><linearGradient id="linearGradient40" x2="1" gradientTransform="matrix(-572.8 -422.91 422.91 -572.8 2734.5 1845)" gradientUnits="userSpaceOnUse"><stop stop-color="#fff" offset="0"/><stop stop-color="#00abb8" offset="1"/></linearGradient><clipPath id="clipPath50"><path d="m3142.7 2210.1c0-115.97-94.03-210.01-210.01-210.01-115.97 0-210 94.04-210 210.01s94.03 210.01 210 210.01c115.98 0 210.01-94.04 210.01-210.01z"/></clipPath><linearGradient id="linearGradient56" x2="1" gradientTransform="matrix(-801.91 -592.06 592.06 -801.91 3180 2392.7)" gradientUnits="userSpaceOnUse"><stop stop-color="#fff" offset="0"/><stop stop-color="#00abb8" offset="1"/></linearGradient><clipPath id="clipPath66"><path d="m3797.7 2620.1c0-140.82-114.18-255-255.01-255s-255.01 114.18-255.01 255 114.18 255 255.01 255 255.01-114.18 255.01-255z"/></clipPath><linearGradient id="linearGradient72" x2="1" gradientTransform="matrix(-973.73 -718.92 718.92 -973.73 3842 2841)" gradientUnits="userSpaceOnUse"><stop stop-color="#fff" offset="0"/><stop stop-color="#00abb8" offset="1"/></linearGradient></defs><g transform="matrix(1.3333 0 0 -1.3333 0 386.01)"><g transform="scale(.1)"><g clip-path="url(#clipPath18)"><path d="m2357 380.18c0-126.56-102.61-229.18-229.19-229.18-126.57 0-229.19 102.62-229.19 229.18 0 126.58 102.62 229.19 229.19 229.19 126.58 0 229.19-102.61 229.19-229.19" fill="#ffffff"/></g><g clip-path="url(#clipPath34)"><path d="m2708.2 1714.8c0-82.86-67.15-150.01-150-150.01-82.84 0-150.01 67.15-150.01 150.01 0 82.83 67.17 150 150.01 150 82.85 0 150-67.17 150-150" fill="#ffffff"/></g><g clip-path="url(#clipPath50)"><path d="m3142.7 2210.1c0-115.97-94.03-210.01-210.01-210.01-115.97 0-210 94.04-210 210.01s94.03 210.01 210 210.01c115.98 0 210.01-94.04 210.01-210.01" fill="#ffffff"/></g><g clip-path="url(#clipPath66)"><path d="m3797.7 2620.1c0-140.82-114.18-255-255.01-255s-255.01 114.18-255.01 255 114.18 255 255.01 255 255.01-114.18 255.01-255" fill="#ffffff"/></g><path d="m0 159.82c226.87 191.71 382.6 316.91 668.57 520.48 151.21 113.12 643.77 417.18 1152.8 550.83 504.81 147.3 987.61 135.08 985.84 135.25-1.67-0.04 480.76 9.47 986.05-136.79 509.67-131.9 1004.9-431 1155.6-544.52 285.27-203.88 439.42-330.71 657.72-531.92-181.25 234.64-322.42 386.84-613.01 595.83-153.58 116.47-659.03 421.75-1179.3 556.23-515.83 149.16-1008.6 139.14-1006.9 139.18 1.87-0.18-491.41 12.64-1007.2-137.7-520.22-136.45-1022.7-446.77-1176.3-562.46-290.71-208.37-432.56-357.79-623.85-584.41" fill="#ffffff"/><g fill="#ffffff"><path d="m2128.6 765.9v2104.2c0 13.81-11.19 25-25 25s-25-11.19-25-25v-2104.2c0-13.808 11.19-25 25-25s25 11.192 25 25"/><path d="m1541.2 34.762c3.86-8.5117 10.24-14.883 19.13-19.121 8.88-4.2422 17.97-4.4414 27.25-0.582 9.27 3.8633 15.83 10.23 19.71 19.133 3.86 8.8672 3.86 17.98 0 27.25l-286.39 664.38c-3.1 6.95-7.73 13.121-13.91 18.539-6.2 5.403-13.16 8.121-20.88 8.121-7.73 0-14.69-2.898-20.86-8.691-6.2-5.801-10.44-11.801-12.76-17.969l-288.71-664.38c-3.875-9.2695-3.875-18.383 0-27.25 3.86-8.9023 10.438-15.27 19.715-19.133 9.27-3.8594 18.351-3.6602 27.241 0.582 8.88 4.2383 15.26 10.609 19.13 19.121l92.76 212.19h325.81zm-255.09 583.23 131.03-299.14h-263.2zm575.1-121.75c15.45 36.321 36.52 68.012 63.19 95.071 26.67 27.05 58.16 48.3 94.5 63.781 36.32 15.441 74.96 23.191 115.95 23.191 42.5 0 82.31-9.679 119.42-29 37.1-19.32 69.56-40.972 97.39-64.929 8.5-8.512 18.74-12.372 30.73-11.59 11.98 0.758 21.05 5.789 27.25 15.07 5.4 8.5 6.55 17.398 3.48 26.68-3.1 9.269-7.74 16.988-13.92 23.179-34.02 34.789-73.62 62.207-118.84 82.329-45.22 20.082-93.74 30.128-145.51 30.128-51.03 0-98.96-9.66-143.78-28.976-44.84-19.332-83.88-45.801-117.11-79.41-33.24-33.641-59.53-72.883-78.84-117.7-19.33-44.829-28.99-92.75-28.99-143.77 0-51.019 9.66-98.949 28.99-143.77 19.31-44.84 45.6-83.891 78.84-117.11 33.23-33.238 72.27-59.531 117.11-78.851 44.82-19.316 92.75-28.977 143.78-28.977 53.33 0 103.18 10.227 149.57 30.719 46.37 20.469 86.56 49.281 120.58 86.39 6.95 7.707 10.44 17.571 10.44 29.571 0 11.968-4.26 21.437-12.76 28.398-7.74 5.399-16.43 6.949-26.09 4.641-9.67-2.321-17.59-6.969-23.77-13.922-27.06-29.367-59.33-52.367-96.81-68.981-37.5-16.628-77.89-24.937-121.16-24.937-40.99 0-79.63 7.7305-115.95 23.199-36.34 15.449-67.83 36.52-94.5 63.18-26.67 26.68-47.74 58.172-63.19 94.5-15.47 36.32-23.19 74.969-23.19 115.95 0 40.961 7.72 79.609 23.19 115.95zm787.26 194.79c6.96-6.961 15.46-10.441 25.51-10.441h165.81v-633.07c0-10.051 3.47-18.551 10.44-25.508 6.95-6.9531 15.45-10.43 25.5-10.43 10.03 0 18.55 3.4766 25.51 10.43 6.95 6.9571 10.43 15.457 10.43 25.508v633.07h164.65c10.04 0 18.55 3.48 25.51 10.441 6.95 6.957 10.43 15.449 10.43 25.508 0 10.031-3.48 18.551-10.43 25.512-6.96 6.949-15.47 10.429-25.51 10.429h-402.34c-10.05 0-18.55-3.48-25.51-10.429-6.95-6.961-10.43-15.481-10.43-25.512 0-10.059 3.48-18.551 10.43-25.508zm1069-658.58c5.41-8.5195 12.95-14.891 22.62-19.129 9.65-4.2383 19.51-2.8906 29.57 4.0586 11.58 8.5 16.6 17.77 15.06 27.82-1.55 10.043-4.63 18.941-9.28 26.672l-176.23 286.39c23.18 3.859 45.02 11.777 65.51 23.769 20.47 11.969 38.06 26.668 52.75 44.059 14.69 17.379 26.27 36.898 34.79 58.558 8.49 21.622 12.75 44.813 12.75 69.571 0 27.043-5.21 52.543-15.64 76.519-10.43 23.942-24.75 45.024-42.91 63.184-18.17 18.16-39.24 32.457-63.19 42.898-23.96 10.442-49.86 15.66-77.69 15.66h-190.14c-10.06 0-18.55-3.671-25.51-11.019-6.97-7.352-10.45-16.051-10.45-26.09v-667.85c0-10.051 3.48-18.551 10.45-25.508 6.96-6.9531 15.45-10.43 25.51-10.43 10.04 0 18.56 3.4766 25.51 10.43 6.95 6.9571 10.43 15.457 10.43 25.508v308.41h107.83zm-306.09 395.38v252.76h154.2c17.01 0 33.24-3.301 48.71-9.852 15.45-6.578 28.98-15.648 40.58-27.25 11.59-11.597 20.67-25.129 27.25-40.578 6.54-15.469 9.84-31.699 9.84-48.691 0-17.797-3.3-34.207-9.84-49.278-6.58-15.082-15.66-28.421-27.25-40.011-11.6-11.59-25.13-20.692-40.58-27.25-15.47-6.571-31.7-9.848-48.71-9.848zm609.86-380.31c0-10.051 3.48-18.551 10.45-25.508 6.95-6.9531 15.45-10.43 25.51-10.43 10.02 0 18.53 3.4766 25.51 10.43 6.95 6.9571 10.43 15.457 10.43 25.508v491.62c0 10.039-3.48 18.55-10.43 25.507-6.98 6.954-15.49 10.434-25.51 10.434-10.06 0-18.56-3.48-25.51-10.434-6.97-6.957-10.45-15.468-10.45-25.507zm2.33 623.8c9.27-9.281 20.46-13.922 33.63-13.922 13.12 0 24.33 4.641 33.61 13.922 9.28 9.27 13.91 20.469 13.91 33.621 0 13.129-4.63 24.348-13.91 33.629-9.28 9.27-20.49 13.91-33.61 13.91-13.17 0-24.36-4.64-33.63-13.91-9.28-9.281-13.91-20.5-13.91-33.629 0-13.152 4.63-24.351 13.91-33.621zm636.54-642.92c28.59 11.191 53.92 26.66 75.96 46.371 22.03 19.711 39.59 43.082 52.75 70.152 13.12 27.047 19.71 56.027 19.71 86.949 0 30.918-4.85 57.578-14.5 80.008-9.66 22.41-23.18 42.121-40.58 59.133-17.38 17-38.07 31.687-62.03 44.07-23.97 12.348-50.63 23.938-80 34.777-14.69 5.391-32.46 11.59-53.34 18.563-20.86 6.949-40.98 15.058-60.3 24.328-19.31 9.281-35.76 20.102-49.27 32.469-13.54 12.363-20.3 26.273-20.3 41.75 0 21.621 4.65 39.59 13.93 53.91 9.28 14.293 21.05 25.691 35.35 34.211 14.3 8.492 29.96 14.672 46.97 18.539 17 3.871 33.23 5.801 48.7 5.801 10.03 0 21.44-0.578 34.19-1.739 12.76-1.152 25.51-4.062 38.27-8.691 12.75-4.648 25.31-11.41 37.69-20.289 12.35-8.902 23.19-21.082 32.46-36.531 5.39-8.508 13.13-14.309 23.19-17.391 10.04-3.09 19.7-1.551 28.98 4.641 9.28 5.39 14.69 14.09 16.23 26.082 1.54 11.988-0.76 22.218-6.95 30.738-13.91 19.301-29.18 35.148-45.8 47.539-16.62 12.34-33.81 22.031-51.59 28.981-17.79 6.949-35.76 11.781-53.92 14.492-18.16 2.699-35.76 4.07-52.75 4.07-25.51 0-51.22-4.07-77.11-12.191-25.9-8.11-49.28-20.102-70.14-35.942-20.88-15.847-37.89-35.179-51.02-57.969-13.16-22.808-19.7-48.898-19.7-78.261 0-25.508 6.95-48.129 20.86-67.828 13.9-19.711 31.48-36.93 52.75-51.602 21.25-14.687 44.82-27.25 70.72-37.68 25.9-10.437 50.45-19.14 73.64-26.089 23.18-7.739 44.82-16.231 64.92-25.508 20.09-9.282 37.5-19.711 52.18-31.313 14.67-11.59 26.1-25.117 34.2-40.578 8.13-15.473 12.17-33.621 12.17-54.5 0-20.859-4.63-40.391-13.9-58.539-9.28-18.184-21.45-33.832-36.53-46.973-15.08-13.14-32.65-23.578-52.75-31.3-20.12-7.7383-40.59-11.598-61.45-11.598-13.16 0-28.02 1.75-44.65 5.2305-16.62 3.4805-33.04 8.8672-49.27 16.231-16.23 7.328-31.12 16.226-44.63 26.66-13.54 10.438-23.77 22.617-30.74 36.52-5.41 9.277-12.95 15.257-22.6 17.98-9.67 2.699-19.14 1.34-28.42-4.062-9.26-5.418-15.27-12.95-17.97-22.61-2.71-9.672-1.35-19.129 4.06-28.41 9.28-17.781 22.62-34.02 40-48.699 17.41-14.691 36.7-27.242 57.97-37.672 21.25-10.438 43.67-18.559 67.27-24.359 23.55-5.789 46.17-8.6875 67.81-8.6875 30.92 0 60.68 5.5977 89.28 16.816"/><path d="m1541.2 34.762-9.94-4.5c4.83-10.812 13.45-19.34 24.37-24.473 5.95-2.8398 12.36-4.4102 18.82-4.3906 5.88-0.00781 11.72 1.2734 17.29 3.5703 11.59 4.7109 20.71 13.52 25.55 24.852 2.48 5.6992 3.81 11.762 3.8 17.84 0.01 6.1093-1.32 12.18-3.73 17.961l-286.44 664.51c-3.81 8.601-9.5 16.109-16.74 22.453-7.84 6.93-17.75 10.879-28.07 10.816-10.51 0.071-20.59-4.257-28.33-11.66-7.1-6.636-12.46-13.968-15.51-22.09l10.22-3.828-10.01 4.34-288.7-664.37c-2.5-5.9375-3.825-12.02-3.821-18.129-4e-3 -6.0899 1.328-12.148 3.828-17.84 4.813-11.34 13.965-20.141 25.516-24.84 5.578-2.332 11.43-3.5898 17.297-3.582 6.483-0.00781 12.863 1.5625 18.803 4.3711 10.94 5.1524 19.56 13.68 24.41 24.48l89.95 205.78h311.54l89.9-205.63 10 4.3633 9.99 4.3789-95.62 218.73h-340.08l-95.62-218.73c-2.84-6.082-6.98-10.301-13.83-13.652-3.37-1.5899-6.404-2.25-9.443-2.2578-2.785 0.0078-5.668 0.5703-8.914 1.8984-6.996 3.0313-10.996 6.9805-13.887 13.402-1.402 3.2304-2.004 6.1484-2.008 9.1289 4e-3 3 0.617 6.0898 2.063 9.5586l288.78 664.57 0.08 0.191c1.58 4.231 4.71 8.899 9.99 13.84 4.62 4.211 8.46 5.66 13.41 5.739 5.13-0.059 9.13-1.528 13.71-5.418 5.09-4.481 8.68-9.332 11.11-14.77l286.33-664.24c1.38-3.3476 1.99-6.4687 2-9.4687-0.01-2.9805-0.61-5.9219-1.99-9.1289-2.91-6.4219-6.9-10.383-13.89-13.402-3.25-1.3281-6.15-1.8906-8.93-1.8984-3.06 0.0078-6.08 0.6679-9.42 2.2578-6.87 3.3633-11 7.5703-13.9 13.781zm-255.09 583.23-10-4.379 124.33-283.85h-229.75l125.41 283.81-9.99 4.418-10-4.379 10 4.379-9.98 4.41-138.96-314.47h296.66l-147.68 337.15-10.02-22.684zm575.1-121.75 10.04-4.269c14.95 35.14 35.23 65.613 60.92 91.679 25.66 26.024 55.88 46.442 91 61.403 34.96 14.859 72.06 22.308 111.68 22.308 40.84-0.019 78.78-9.238 114.38-27.75 36.45-19 68.2-40.187 95.31-63.519l7.12 8.262-7.72-7.692c9.46-9.648 22.08-15 35.45-14.898 1.27 0 2.44 0.047 3.52 0.097 14.81 0.731 27.99 7.879 35.8 19.911l0.14 0.218c4.38 6.852 6.87 14.641 6.85 22.563 0 4.539-0.79 9.031-2.22 13.359-3.56 10.699-9.09 20.02-16.55 27.488-34.9 35.692-75.71 63.954-122.14 84.59-46.63 20.731-96.76 31.094-149.94 31.082-52.4 0.012-101.9-9.961-148.1-29.871-46.06-19.859-86.34-47.14-120.55-81.769-34.21-34.598-61.29-75.039-81.11-121.04-19.93-46.219-29.88-95.711-29.87-148.1-0.01-52.379 9.94-101.89 29.87-148.1 19.82-46.019 46.92-86.281 81.15-120.49 34.22-34.238 74.48-61.328 120.51-81.16 46.2-19.93 95.7-29.879 148.1-29.879 54.72 0 106.18 10.539 153.97 31.66 47.71 21.059 89.21 50.801 124.22 88.989 8.99 9.882 13.38 22.89 13.31 36.953 0.17 14.508-5.72 28.019-16.76 36.84l-0.36 0.308-0.31 0.199c-7.02 4.95-15.36 7.692-23.91 7.653-3.64 0-7.33-0.453-11.02-1.371-11.51-2.711-21.69-8.602-29.33-17.25l8.16-7.262-8.03 7.402c-26.06-28.281-57.01-50.351-93.21-66.402-36.08-16-74.85-23.988-116.73-24-39.62 0.0117-76.72 7.4301-111.68 22.32-35.15 14.949-65.39 35.211-91.05 60.871-25.66 25.668-45.92 55.899-60.87 91.039-14.89 34.973-22.31 72.071-22.32 111.68 0.01 39.59 7.43 76.699 22.32 111.68l-10.04 4.269-10.05 4.274c-16.05-37.703-24.06-77.891-24.06-120.22 0-42.34 8.01-82.539 24.06-120.21 15.96-37.543 37.84-70.281 65.52-97.953 27.67-27.68 60.4-49.547 97.95-65.508 37.68-16.062 77.86-24.07 120.22-24.062 44.66-0.0078 86.66 8.5898 125.58 25.863 38.78 17.168 72.35 41.09 100.42 71.578l0.13 0.129c4.72 5.262 10.37 8.652 18.15 10.551 2.15 0.531 4.07 0.75 5.88 0.75 4.16-0.032 7.6-1.098 11.43-3.719l6.24 8.949-6.91-8.441c5.95-5.078 8.58-10.528 8.75-19.957-0.08-9.942-2.65-16.641-7.63-22.274-32.97-35.929-71.84-63.808-116.88-83.699-44.97-19.848-93.23-29.789-145.16-29.789-49.65 0-96.03 9.3711-139.46 28.082-43.65 18.816-81.47 44.297-113.71 76.547-32.25 32.242-57.73 70.051-76.54 113.71-18.73 43.43-28.09 89.808-28.09 139.45 0 49.652 9.36 96 28.09 139.45 18.81 43.653 44.3 81.684 76.58 114.34 32.24 32.617 70.04 58.258 113.67 77.066 43.43 18.711 89.81 28.09 139.46 28.102 50.36-0.012 97.27-9.75 141.07-29.211 44.01-19.57 82.4-46.18 115.48-79.969 4.96-4.988 8.71-11.129 11.37-19.019 0.76-2.34 1.1-4.492 1.1-6.5-0.02-3.52-0.96-6.903-3.45-10.86l9.22-5.859-9.08 6.066c-4.59-6.527-9.55-9.449-18.86-10.25l-2.31-0.058c-8.05 0.109-13.91 2.531-20.01 8.48l-0.37 0.371-0.23 0.188c-28.54 24.57-61.72 46.66-99.47 66.332-38.62 20.121-80.31 30.25-124.46 30.238-42.36 0-82.54-8.027-120.22-24.07-37.58-15.988-70.33-38.07-98-66.149-27.65-28.05-49.51-60.96-65.47-98.468zm787.26 194.79-7.72-7.711c8.75-8.91 20.67-13.75 33.23-13.64h154.88l0.01-622.16c-0.11-12.559 4.73-24.48 13.63-33.23 8.75-8.8985 20.66-13.731 33.23-13.629 12.54-0.10156 24.46 4.7305 33.23 13.629 8.9 8.75 13.73 20.672 13.63 33.23v622.16h153.73c12.54-0.11 24.45 4.718 33.22 13.64 8.91 8.75 13.73 20.649 13.64 33.219 0.09 12.551-4.73 24.461-13.66 33.223-8.75 8.91-20.66 13.738-33.2 13.636h-402.34c-12.56 0.102-24.48-4.726-33.23-13.636-8.91-8.762-13.74-20.672-13.63-33.223-0.11-12.57 4.73-24.469 13.63-33.219l7.72 7.711 7.71 7.719c-5 5.16-7.13 10.25-7.22 17.789 0.09 7.52 2.22 12.641 7.22 17.793 5.18 5 10.26 7.129 17.8 7.227h402.34c7.52-0.098 12.64-2.227 17.77-7.227 5.02-5.152 7.15-10.273 7.25-17.793-0.1-7.539-2.23-12.629-7.23-17.789-5.15-5-10.27-7.129-17.79-7.238h-175.57v-643.99c-0.1-7.539-2.22-12.621-7.23-17.789-5.16-5.0117-10.28-7.1289-17.79-7.2305-7.54 0.1016-12.63 2.2188-17.79 7.2188-5.02 5.1796-7.13 10.262-7.25 17.801v643.99h-176.71c-7.54 0.109-12.62 2.226-17.8 7.238zm1069-658.58-9.22-5.8476c6.53-10.332 16-18.293 27.44-23.281 4.91-2.1484 10.18-3.3203 15.45-3.3203 8.73 0 17.13 3.1602 24.69 8.3789l0.27 0.1914c11.72 8.461 19.81 19.809 19.79 33.129 0 1.8321-0.18 3.4492-0.35 4.8594l-0.06 0.4609 0.02-0.1484c-1.72 11.23-5.25 21.551-10.7 30.621l-176.29 286.49-9.3-5.718 1.8-10.762c24.47 4.059 47.63 12.469 69.22 25.109 21.48 12.563 40.07 28.082 55.58 46.442 15.45 18.301 27.68 38.89 36.6 61.59 9.03 22.961 13.52 47.578 13.52 73.578 0 28.429-5.53 55.519-16.56 80.871-10.96 25.16-26.08 47.43-45.2 66.551s-41.39 34.238-66.54 45.191c-25.39 11.066-52.85 16.566-82.05 16.566h-190.14c-12.73 0.114-24.77-5.097-33.44-14.429-8.75-9.09-13.53-21.02-13.43-33.598v-667.85c-0.1-12.559 4.72-24.48 13.65-33.23 8.73-8.8985 20.64-13.731 33.22-13.629 12.54-0.10156 24.45 4.7305 33.22 13.641 8.89 8.75 13.73 20.66 13.62 33.219v297.52h90.82l195.07-318.28 0.08-0.1601 9.22 5.8476 9.3 5.6992-201.47 328.7h-124.84v-319.33c-0.12-7.539-2.23-12.621-7.25-17.801-5.13-5-10.25-7.1172-17.77-7.2188-7.56 0.1016-12.64 2.2188-17.79 7.2188-5.02 5.1796-7.15 10.262-7.25 17.801v667.85c0.1 7.52 2.27 12.981 7.44 18.59 5.24 5.34 10.2 7.48 17.6 7.598h190.14c26.46 0 50.78-4.918 73.32-14.75 22.75-9.911 42.61-23.411 59.84-40.598 17.19-17.211 30.7-37.09 40.61-59.832 9.84-22.59 14.74-46.52 14.74-72.16 0-23.508-4.02-45.278-11.99-65.59-8.1-20.59-19.06-39.02-32.97-55.5-13.88-16.41-30.47-30.277-49.92-41.68-19.39-11.34-39.9-18.777-61.8-22.429l-16.01-2.661 184.74-300.21c3.77-6.289 6.41-13.77 7.8-22.617l10.78 1.6679-10.82-1.3476c0.11-0.9297 0.15-1.6719 0.15-2.1524-0.02-4.0976-2.13-8.9804-10.86-15.52l6.47-8.8008-6.19 8.9922c-4.96-3.3828-8.89-4.5313-12.33-4.5391-2.14 0-4.25 0.4297-6.68 1.4883-7.89 3.4883-13.49 8.2891-17.77 14.98l-9.22-5.8516 9.3 5.6992zm-306.09 395.38h10.9v241.85h143.3c15.58 0 30.29-3 44.43-8.989 14.24-6.062 26.52-14.312 37.13-24.91 10.61-10.621 18.87-22.91 24.92-37.152 6-14.141 8.99-28.84 8.99-44.41 0-16.449-3.03-31.289-8.95-44.93-6.05-13.84-14.32-25.988-24.96-36.641-10.61-10.597-22.89-18.878-37.13-24.918-14.14-6-28.83-8.98-44.43-8.98h-154.2v-10.918h10.9-10.9v-10.922h154.2c18.4 0 36.17 3.578 52.97 10.731 16.68 7.07 31.44 17 44.02 29.558 12.56 12.551 22.44 27.082 29.55 43.36 7.19 16.531 10.76 34.523 10.76 53.66 0 18.39-3.61 36.172-10.72 52.953-7.11 16.68-16.99 31.457-29.57 44.039-12.6 12.59-27.36 22.48-44.04 29.57-16.8 7.129-34.55 10.739-52.97 10.731h-165.12v-274.6h10.92zm609.86-380.31h-10.92c-0.09-12.559 4.73-24.48 13.66-33.23 8.73-8.8985 20.64-13.731 33.22-13.629 12.54-0.10156 24.45 4.7305 33.2 13.629 8.91 8.7617 13.75 20.672 13.63 33.23v491.62c0.12 12.558-4.7 24.461-13.61 33.218-8.77 8.922-20.68 13.75-33.22 13.629-12.58 0.121-24.49-4.718-33.24-13.629-8.91-8.75-13.73-20.66-13.64-33.218v-491.62h21.84v491.62c0.1 7.519 2.23 12.629 7.23 17.789 5.17 5.011 10.25 7.129 17.81 7.242 7.5-0.113 12.62-2.242 17.79-7.242 4.98-5.16 7.11-10.27 7.23-17.789v-491.62c-0.12-7.539-2.23-12.621-7.25-17.801-5.15-5-10.27-7.1172-17.77-7.2188-7.56 0.1016-12.64 2.2188-17.79 7.2188-5.02 5.1796-7.15 10.262-7.25 17.801zm2.33 623.8-7.74-7.718c11.04-11.18 25.63-17.223 41.37-17.11 15.7-0.113 30.29 5.93 41.33 17.11 11.19 11.027 17.2 25.617 17.11 41.339 0.09 15.7-5.92 30.309-17.11 41.348-11.04 11.172-25.63 17.211-41.33 17.109-15.74 0.102-30.33-5.937-41.37-17.109-11.17-11.039-17.21-25.641-17.09-41.348-0.12-15.722 5.92-30.312 17.09-41.332l7.74 7.711 7.71 7.711c-7.36 7.528-10.61 15.34-10.72 25.91 0.11 10.571 3.36 18.399 10.72 25.918 7.52 7.36 15.33 10.602 25.92 10.7 10.55-0.098 18.38-3.34 25.9-10.7 7.36-7.519 10.6-15.347 10.7-25.918-0.1-10.582-3.34-18.382-10.7-25.902-7.52-7.367-15.35-10.609-25.9-10.719-10.59 0.11-18.4 3.34-25.92 10.719zm636.54-642.92 3.98-10.168c29.73 11.641 56.23 27.82 79.24 48.41 23.09 20.641 41.56 45.23 55.29 73.507 13.87 28.524 20.82 59.262 20.82 91.723 0 32.039-5.02 60.219-15.39 84.328-10.21 23.68-24.59 44.641-42.97 62.621-18.24 17.821-39.84 33.141-64.66 45.95-24.42 12.601-51.51 24.371-81.23 35.32-14.85 5.461-32.72 11.68-53.66 18.68-20.45 6.812-40.13 14.761-59.02 23.82-18.53 8.89-34.04 19.148-46.64 30.691-11.86 10.981-16.64 21.52-16.74 33.688 0 20.113 4.28 35.801 12.15 47.98 8.44 12.961 18.91 23.071 31.8 30.762 13.28 7.879 27.83 13.641 43.81 17.289 16.28 3.699 31.69 5.512 46.27 5.512 9.6 8e-3 20.72-0.543 33.2-1.68 11.78-1.07 23.59-3.75 35.53-8.082 11.69-4.262 23.37-10.531 35.05-18.91 10.96-7.891 20.82-18.86 29.46-33.258l0.15-0.242c6.68-10.66 16.98-18.32 29.2-21.988 4.3-1.313 8.71-2.012 13.13-2.012 8.85-0.031 17.46 2.91 25.1 7.992l-6.04 9.098 5.49-9.43c12.28 6.949 19.88 19.648 21.56 34.121 0.37 2.891 0.53 5.68 0.53 8.379 0.04 11.012-3.15 21.5-9.45 30.141-14.48 20.07-30.51 36.769-48.13 49.898-17.34 12.883-35.39 23.063-54.14 30.391-18.52 7.242-37.29 12.281-56.27 15.129-18.67 2.773-36.8 4.179-54.37 4.179-26.66 0-53.52-4.25-80.38-12.679-27.05-8.469-51.6-21.059-73.47-37.668-22.01-16.7-40.04-37.2-53.89-61.211-14.18-24.571-21.17-52.731-21.15-83.711-0.04-27.481 7.62-52.617 22.87-74.129 14.67-20.801 33.22-38.942 55.47-54.289 21.95-15.172 46.25-28.102 72.83-38.821 26.15-10.531 51.02-19.339 74.57-26.41l3.15 10.45-3.46-10.348c22.85-7.621 44.1-15.981 63.81-25.063 19.45-8.988 36.09-19.007 49.98-29.961 13.59-10.757 23.92-23.058 31.31-37.089 7.16-13.68 10.91-29.957 10.91-49.438-0.02-19.25-4.21-36.93-12.71-53.57-8.67-16.992-19.94-31.481-33.97-43.711-14.06-12.258-30.48-22.031-49.49-29.34-18.94-7.2812-38.03-10.859-57.54-10.871-12.2-0.0078-26.36 1.6328-42.42 4.9922-15.82 3.3009-31.46 8.4489-46.99 15.488-15.51 7.012-29.67 15.473-42.48 25.371-12.4 9.571-21.45 20.411-27.64 32.77l-0.17 0.32-0.16 0.289c-6.5 11.352-16.78 19.61-29.08 22.981-4.14 1.152-8.34 1.769-12.56 1.769-8.46 0.012-16.78-2.461-24.34-6.929-11.31-6.489-19.61-16.731-22.95-29.09-1.15-4.059-1.77-8.27-1.77-12.531-0.02-8.45 2.46-16.75 6.93-24.321l9.41 5.512-9.68-5.039c10-19.191 24.33-36.551 42.65-52 18.09-15.27 38.17-28.32 60.2-39.129 21.95-10.793 45.12-19.172 69.45-25.152 24.32-5.9805 47.81-9.0195 70.43-9.0195 32.23 0 63.42 5.8594 93.26 17.578l-3.98 10.16-3.99 10.152c-27.36-10.719-55.7-16.051-85.29-16.051-20.68 0-42.4 2.7695-65.21 8.3789-22.86 5.6133-44.52 13.453-65.06 23.551-20.51 10.059-39.05 22.109-55.73 36.211-16.48 13.91-28.82 29.031-37.36 45.41l-0.17 0.308-0.1 0.161c-2.79 4.832-3.93 9.031-3.95 13.289 0 2.101 0.32 4.293 0.98 6.64 2.05 6.981 5.76 11.832 12.97 16.153 4.76 2.769 9 3.898 13.3 3.918 2.13 0 4.33-0.29 6.66-0.961 6.99-2.047 11.8-5.75 16.11-12.95l9.44 5.493-9.77-4.883c7.73-15.469 19.16-28.969 33.83-40.27 14.22-10.98 29.84-20.308 46.81-27.968 16.92-7.6797 34.11-13.332 51.55-16.969 17.17-3.6015 32.75-5.4531 46.87-5.4531 22.21-0.0078 44.07 4.1328 65.37 12.32 21.16 8.1328 39.91 19.223 56 33.262 16.11 14.039 29.2 30.859 39.08 50.23 10.06 19.649 15.12 41.02 15.1 63.5 0 22.27-4.36 42.301-13.42 59.57-8.85 16.879-21.35 31.641-37.11 44.079-15.49 12.222-33.63 23.07-54.37 32.652-20.51 9.457-42.52 18.098-66.04 25.949l-0.31 0.098c-22.83 6.851-47.07 15.441-72.7 25.761-25.23 10.149-48.06 22.34-68.59 36.54-20.31 14.011-36.91 30.289-50.04 48.91-12.6 17.91-18.85 38-18.89 61.539 0.02 27.75 6.14 51.769 18.27 72.812 12.42 21.559 28.41 39.731 48.14 54.731 19.86 15.058 42.05 26.457 66.82 34.218 24.92 7.809 49.49 11.68 73.85 11.68 16.4 0 33.45-1.308 51.15-3.941 17.3-2.598 34.47-7.199 51.54-13.867 16.8-6.571 33.13-15.75 49.06-27.582 15.59-11.598 30.1-26.61 43.46-45.161 3.54-4.961 5.29-10.3 5.33-17.359 0-1.82-0.12-3.68-0.35-5.609-1.43-9.493-4.63-14.18-10.9-18.032l-0.39-0.211-0.15-0.117c-4.79-3.14-8.87-4.332-13.03-4.359-2.13 0-4.32 0.316-6.72 1.058-7.89 2.489-13.07 6.43-17.19 12.801l-9.2-5.851 9.36 5.621c-9.9 16.488-21.72 29.871-35.45 39.769-13.09 9.391-26.52 16.668-40.33 21.692-13.58 4.937-27.27 8.058-41.02 9.297-13.01 1.179-24.73 1.793-35.17 1.793-16.39 0-33.44-2.051-51.12-6.082-18.06-4.098-34.82-10.7-50.12-19.801-15.74-9.36-28.82-22.028-38.94-37.649-10.68-16.461-15.68-36.711-15.68-59.851-0.1-18.778 8.63-36.071 23.84-49.797 14.44-13.211 31.8-24.582 51.92-34.242 19.74-9.489 40.27-17.782 61.56-24.871 20.8-6.93 38.48-13.098 53.03-18.438 29-10.699 55.25-22.121 78.77-34.242 23.08-11.93 42.85-26.008 59.41-42.168 16.39-16.039 29.04-34.5 38.18-55.652 8.93-20.739 13.6-45.899 13.6-75.688 0-29.371-6.21-56.601-18.61-82.191-12.58-25.828-29.24-48-50.22-66.77-21.05-18.828-45.2-33.602-72.66-44.359l3.99-10.152"/></g></g></g></svg>
