<?xml version="1.0" encoding="UTF-8"?>
<!-- Created with Inkscape (http://www.inkscape.org/) -->
<svg width="130.55mm" height="49.037mm" version="1.1" viewBox="0 0 130.55 49.037" xmlns="http://www.w3.org/2000/svg" xmlns:xlink="http://www.w3.org/1999/xlink">
 <defs>
  <pattern id="pattern26076" patternTransform="matrix(.26458 0 0 .26458 67.99 112.69)" xlink:href="#pattern19836"/>
  <radialGradient id="radialGradient24878" cx="53.668" cy="128.64" r="20.342" gradientTransform="matrix(2.1637 0 0 2.0474 -66.224 -131.05)" gradientUnits="userSpaceOnUse">
   <stop stop-color="#fcc640" offset="0"/>
   <stop stop-color="#fcc640" stop-opacity=".0045759" offset="1"/>
  </radialGradient>
  <pattern id="pattern20250" patternTransform="matrix(.26458 0 0 .26458 50.853 112.69)" xlink:href="#pattern19836"/>
  <pattern id="pattern19836" width="16.148935" height="16.600063" patternTransform="translate(271.21 409.2)" patternUnits="userSpaceOnUse">
   <path d="m0.87874 16.6v-15.721h15.27" fill="none" stroke="#fff" stroke-width="1.7575"/>
  </pattern>
 </defs>
 <g transform="translate(-33.578 -94.924)">
  <g fill="#78c0e0">
   <path d="m57.102 129.52c0.32014 0.86894 1.4864 4.2304-1.212 6.9287-2.8127 2.8126-7.0202 2.0809-9.5813-0.48021-2.401-2.401-3.3157-6.5629-0.41161-9.467 2.3324-2.3324 5.3052-1.9208 7.0431-1.1434l4.5277-4.5277c-3.1099-2.1952-10.039-3.4529-15.344 1.8522-5.5338 5.5338-4.4362 13.309-0.11434 17.631 4.5734 4.5734 12.417 5.1908 17.722-0.11431 4.0932-4.0932 4.9164-10.222 1.898-15.207z" stroke-width=".80848"/>
   <g stroke-width=".65343">
    <path d="m65.087 140.6h4.3388v-19.342h-4.3388z"/>
    <path d="m70.824 133.33c0 3.5547 2.5353 7.7105 7.8151 7.7105s7.8151-4.1558 7.8151-7.7105-2.5353-7.7105-7.8151-7.7105-7.8151 4.1558-7.8151 7.7105zm4.3388 0c0-2.1171 1.5944-3.6592 3.4763-3.6592 1.8819 0 3.4763 1.5421 3.4763 3.6592s-1.5944 3.6592-3.4763 3.6592c-1.8819 0-3.4763-1.5421-3.4763-3.6592z"/>
    <path d="m101.29 126.09h-4.3388v7.9719c0 2.3001-1.2285 2.9535-2.483 2.9535-2.3262 0-2.3262-1.908-2.3262-2.9012v-8.0242h-4.3388v8.6776c0 1.9864 0.15682 3.0319 1.3069 4.4695 1.2807 1.6205 3.3717 1.8296 4.2604 1.8296 1.0978 0 2.8751-0.15682 3.7638-2.0126h0.0523v1.5421h4.1035z"/>
    <path d="m118.47 121.26h-4.3388v6.0638c-0.47048-0.47047-1.6989-1.7251-4.2604-1.7251-3.6854 0-7.1878 2.7967-7.1878 7.7105 0 4.3649 2.8751 7.7628 7.2662 7.7628 2.9274 0 3.9729-1.4376 4.3388-2.0387h0.0523v1.5682h4.1297zm-11.448 12.023c0-1.6728 1.1762-3.6331 3.6854-3.6331 2.4046 0 3.6592 1.8819 3.6592 3.6331 0 1.516-0.99322 3.7376-3.7115 3.7376-2.0387 0-3.6331-1.4898-3.6331-3.7376z"/>
    <path d="m120.55 140.6h4.3388v-7.8935c0-0.88867 0-3.0319 2.483-3.0319 2.274 0 2.274 1.9864 2.274 3.0058v7.9196h4.3388v-9.0696c0-2.849-0.88867-3.999-1.6728-4.6786s-2.3262-1.2546-3.7115-1.2546c-2.5876 0-3.5024 1.333-3.9467 2.0387h-0.0523v-1.5421h-4.0513z"/>
    <path d="m145.55 136.05c-0.60116 0.75798-1.3069 1.3591-2.6399 1.3591-1.6989 0-3.1365-1.0194-3.3978-2.7444h10.873c0.0523-0.33978 0.10455-0.57502 0.10455-1.15 0-4.4172-3.241-7.9196-7.6582-7.9196-4.4172 0-7.606 3.7376-7.606 7.7889 0 4.3127 3.5285 7.6844 7.6844 7.6844 1.4898 0 2.9274-0.44434 4.1297-1.3069 1.2284-0.83639 2.2478-2.091 2.9535-3.7115zm-5.9854-4.3127c0.18296-0.86253 1.0455-2.483 3.2933-2.483s3.1103 1.6205 3.2933 2.483z"/>
    <path d="m157.04 121.26h-4.3388v4.8354h-2.1433v3.2933h2.1433v11.213h4.3388v-11.213h2.091v-3.2933h-2.091z"/>
   </g>
  </g>
  <path d="m49.9 132.34 31.187-39.237 9.4973 8.0048z" fill="url(#radialGradient24878)"/>
  <path d="m49.9 132.34 31.187-39.237 9.4973 8.0048z" fill="url(#pattern20250)"/>
  <rect x="67.99" y="112.69" width="4.2727" height="4.3921" fill="url(#pattern26076)"/>
  <path d="m33.612 124.66c1.7326-7.9115 6.084-10.348 11.438-7.8176 2.2637-14.487 16.744-13.562 21.098-8.4816 8.7911-20.118 31.32-13.43 32.319 3.46 9.8039-1.293 15.139 3.4346 13.662 12.737 1.9398-5.0133 0.96792-15.14-13.062-13.64-0.19041-16.542-25.703-24.164-33.026-3.4537-7.3984-6.9474-19.902-3.1396-21.248 8.5463-5.1111-3.2009-11.743 2.0173-11.183 8.6495z" fill="#d2d2d2"/>
 </g>
</svg>
