<?xml version="1.0" encoding="UTF-8" standalone="no"?>
<!DOCTYPE svg PUBLIC "-//W3C//DTD SVG 1.1//EN" "http://www.w3.org/Graphics/SVG/1.1/DTD/svg11.dtd">
<svg width="100%" height="100%" viewBox="0 0 16 13" version="1.1" xmlns="http://www.w3.org/2000/svg" xmlns:xlink="http://www.w3.org/1999/xlink" xml:space="preserve" xmlns:serif="http://www.serif.com/" style="fill-rule:evenodd;clip-rule:evenodd;stroke-linejoin:round;stroke-miterlimit:2;">
    <g transform="matrix(1,0,0,1,-0.1,-1.75)">
        <g transform="matrix(1,0,0,1,0,1.65)">
            <path d="M13.88,4.788C13.721,4.498 13.828,4.133 14.118,3.974C14.409,3.815 14.774,3.921 14.933,4.212C15.549,5.337 15.9,6.628 15.9,8C15.9,9.569 14.648,12.257 14.648,12.257C14.549,12.466 14.338,12.6 14.106,12.6L1.894,12.6C1.662,12.6 1.451,12.466 1.352,12.257C1.352,12.257 0.1,9.569 0.1,8C0.1,3.64 3.64,0.1 8,0.1C9.372,0.1 10.663,0.451 11.788,1.067C12.079,1.226 12.185,1.591 12.026,1.882C11.867,2.172 11.502,2.279 11.212,2.12C10.258,1.597 9.163,1.3 8,1.3C4.302,1.3 1.3,4.302 1.3,8C1.3,9.06 1.967,10.694 2.279,11.4C2.279,11.4 13.721,11.4 13.721,11.4C14.033,10.694 14.7,9.06 14.7,8C14.7,6.837 14.403,5.742 13.88,4.788Z"/>
            <path d="M8,9.131L6.869,8L13.203,2.454L13.583,2.847L8,9.131Z"/>
            <g transform="matrix(1,0,0,1,-0.587871,0.587871)">
                <circle cx="8" cy="8" r="0.802"/>
            </g>
            <g transform="matrix(0.342383,0,0,0.342383,10.6359,-0.0712222)">
                <circle cx="8" cy="8" r="0.802"/>
            </g>
        </g>
    </g>
</svg>
