<?xml version="1.0" encoding="UTF-8" standalone="no"?>
<!DOCTYPE svg PUBLIC "-//W3C//DTD SVG 1.1//EN" "http://www.w3.org/Graphics/SVG/1.1/DTD/svg11.dtd">
<svg width="100%" height="100%" viewBox="0 0 16 16" version="1.1" xmlns="http://www.w3.org/2000/svg" xmlns:xlink="http://www.w3.org/1999/xlink" xml:space="preserve" xmlns:serif="http://www.serif.com/" style="fill-rule:evenodd;clip-rule:evenodd;stroke-linecap:round;stroke-linejoin:round;stroke-miterlimit:1.5;">
    <g transform="matrix(1,0,0,1,0,1)">
        <g transform="matrix(1,0,0,1,0,-1)">
            <path d="M1,10L11,10" style="fill:none;stroke:black;stroke-width:1px;"/>
        </g>
        <g transform="matrix(0.625,0,0,0.625,5.375,7.75)">
            <path d="M9,2C11.208,2 13,3.792 13,6C13,8.208 11.208,10 9,10C6.792,10 5,8.208 5,6" style="fill:none;stroke:black;stroke-width:1.6px;"/>
        </g>
    </g>
    <g transform="matrix(1,0,0,1,0,-1)">
        <g transform="matrix(1,0,0,1,0,1)">
            <path d="M1,6L6.5,6" style="fill:none;stroke:black;stroke-width:1px;"/>
        </g>
        <g transform="matrix(0.625,0,0,0.625,0.875,0.75)">
            <path d="M5,6C5,3.792 6.792,2 9,2C11.208,2 13,3.792 13,6C13,8.208 11.208,10 9,10" style="fill:none;stroke:black;stroke-width:1.6px;"/>
        </g>
    </g>
    <g>
        <path d="M1,8L13.5,8" style="fill:none;stroke:black;stroke-width:1px;"/>
        <g transform="matrix(0.375,0,0,0.375,10.125,4.25)">
            <path d="M5,6C5,3.792 6.792,2 9,2C11.208,2 13,3.792 13,6C13,8.208 11.208,10 9,10" style="fill:none;stroke:black;stroke-width:2.67px;"/>
        </g>
    </g>
</svg>
