<?xml version="1.0" encoding="UTF-8" standalone="no"?>
<!DOCTYPE svg PUBLIC "-//W3C//DTD SVG 1.1//EN" "http://www.w3.org/Graphics/SVG/1.1/DTD/svg11.dtd">
<svg width="100%" height="100%" viewBox="0 0 181 181" version="1.1" xmlns="http://www.w3.org/2000/svg" xmlns:xlink="http://www.w3.org/1999/xlink" xml:space="preserve" xmlns:serif="http://www.serif.com/" style="fill-rule:evenodd;clip-rule:evenodd;stroke-linecap:round;stroke-linejoin:round;stroke-miterlimit:1.5;">
    <g transform="matrix(1,0,0,1,-352.002,-598.098)">
        <g transform="matrix(1.4,0,0,1.4,-632.343,393.775)">
            <g transform="matrix(0.367463,0,0,0.648399,494.001,81.463)">
                <ellipse cx="785.78" cy="199.145" rx="68.034" ry="38.557" style="fill:none;stroke:rgb(33,34,38);stroke-width:8.13px;"/>
            </g>
            <g transform="matrix(0.551194,0,0,0.972599,344.629,16.9004)">
                <ellipse cx="785.78" cy="199.145" rx="68.034" ry="38.557" style="fill:none;stroke:rgb(33,34,38);stroke-width:5.42px;"/>
            </g>
            <g transform="matrix(0.734925,0,0,1.2968,195.256,-47.6623)">
                <ellipse cx="785.78" cy="199.145" rx="68.034" ry="38.557" style="fill:none;stroke:rgb(33,34,38);stroke-width:4.07px;"/>
            </g>
            <g transform="matrix(0.918657,0,0,1.621,45.8839,-112.225)">
                <ellipse cx="785.78" cy="199.145" rx="68.034" ry="38.557" style="fill:none;stroke:rgb(33,34,38);stroke-width:3.25px;"/>
            </g>
        </g>
        <g transform="matrix(4.56759,0,0,5.17859,-1663.7,-2887.49)">
            <ellipse cx="465.717" cy="690.552" rx="2.215" ry="1.954" style="fill:rgb(33,34,38);"/>
        </g>
    </g>
</svg>
