<?xml version="1.0" encoding="UTF-8"?>
<!-- Created with Inkscape (http://www.inkscape.org/) -->
<svg width="435.89" height="218.47" version="1.1" viewBox="0 0 115.33 57.804" xmlns="http://www.w3.org/2000/svg" xmlns:xlink="http://www.w3.org/1999/xlink">
 <defs>
  <radialGradient id="radialGradient11184" cx="31.514" cy="11.43" r="7.8151" gradientTransform="matrix(.8356 .97388 -1.1043 .94747 18.414 -18.326)" gradientUnits="userSpaceOnUse">
   <stop stop-color="#d87373" offset="0"/>
   <stop stop-color="#c83737" offset="1"/>
  </radialGradient>
 </defs>
 <rect x="34.547" y="-.41164" width=".5453" height="15.826" fill="#f2f2f2"/>
 <g fill="#fff">
  <g transform="translate(205.31 61.902)" stroke-width=".27649" aria-label="DATA PORTAL">
   <path d="m-198.31-17.437h-2.7256v-8.0434h2.7806q1.1979 0 2.058 0.48308 0.86404 0.47915 1.3275 1.3785t0.46344 2.1522q0 1.2568-0.46737 2.1601-0.46344 0.90331-1.3393 1.3864-0.87189 0.48308-2.0973 0.48308zm-1.2686-1.2607h1.1979q0.84047 0 1.4021-0.30634 0.56162-0.31027 0.8444-0.92295 0.28278-0.61661 0.28278-1.5396 0-0.92295-0.28278-1.5317-0.28278-0.61268-0.83655-0.9151-0.54984-0.30634-1.3668-0.30634h-1.2411z"/>
   <path d="m-188.78-17.437h-1.5553l2.8317-8.0434h1.7988l2.8356 8.0434h-1.5553l-2.1483-6.3939h-0.0628zm0.0511-3.1537h4.2416v1.1704h-4.2416z"/>
   <path d="m-179.5-24.259v-1.2214h6.4175v1.2214h-2.4861v6.822h-1.4453v-6.822z"/>
   <path d="m-168.15-17.437h-1.5553l2.8317-8.0434h1.7988l2.8356 8.0434h-1.5553l-2.1483-6.3939h-0.0628zm0.0511-3.1537h4.2416v1.1704h-4.2416z"/>
   <path d="m-151.16-17.437v-8.0434h3.0163q0.92688 0 1.5553 0.34562 0.63232 0.34562 0.95437 0.95044 0.32598 0.6009 0.32598 1.3668 0 0.77371-0.32598 1.3746t-0.96222 0.94652q-0.63625 0.34169-1.5671 0.34169h-1.9991v-1.1979h1.8027q0.54199 0 0.8876-0.18852 0.34562-0.18852 0.51057-0.51842 0.16888-0.3299 0.16888-0.758 0-0.42809-0.16888-0.75407-0.16495-0.32598-0.51449-0.50664-0.34562-0.18459-0.89153-0.18459h-1.3353v6.8259z"/>
   <path d="m-133.22-21.459q0 1.3-0.487 2.2269-0.48308 0.92295-1.3196 1.4139-0.83262 0.49093-1.8891 0.49093t-1.893-0.49093q-0.83262-0.49486-1.3196-1.4178-0.48308-0.92688-0.48308-2.2229 0-1.3 0.48308-2.2229 0.487-0.92688 1.3196-1.4178 0.83655-0.49093 1.893-0.49093t1.8891 0.49093q0.83655 0.49093 1.3196 1.4178 0.487 0.92295 0.487 2.2229zm-1.4649 0q0-0.9151-0.2867-1.5435-0.28278-0.63232-0.78549-0.95437-0.50272-0.32598-1.1586-0.32598t-1.1586 0.32598q-0.50271 0.32205-0.78942 0.95437-0.28277 0.62839-0.28277 1.5435t0.28277 1.5474q0.28671 0.62839 0.78942 0.95437 0.50272 0.32205 1.1586 0.32205t1.1586-0.32205q0.50271-0.32598 0.78549-0.95437 0.2867-0.63232 0.2867-1.5474z"/>
   <path d="m-128.2-17.437v-8.0434h3.0163q0.92688 0 1.5553 0.32205 0.63232 0.32205 0.95437 0.90331 0.32598 0.57734 0.32598 1.3471 0 0.77371-0.3299 1.3432-0.32598 0.56555-0.96223 0.87582-0.63625 0.30634-1.5631 0.30634h-2.1483v-1.2097h1.9519q0.54199 0 0.88761-0.14924 0.34561-0.15317 0.51057-0.4438 0.16888-0.29456 0.16888-0.72265t-0.16888-0.73051q-0.16888-0.30634-0.5145-0.46344-0.34562-0.16102-0.89153-0.16102h-1.3353v6.8259zm4.1552-3.6447 1.9912 3.6447h-1.626l-1.9559-3.6447z"/>
   <path d="m-117.72-24.259v-1.2214h6.4174v1.2214h-2.4861v6.822h-1.4453v-6.822z"/>
   <path d="m-106.38-17.437h-1.5553l2.8317-8.0434h1.7988l2.8356 8.0434h-1.5553l-2.1483-6.3939h-0.0628zm0.0511-3.1537h4.2416v1.1704h-4.2416z"/>
   <path d="m-95.768-17.437v-8.0434h1.4571v6.822h3.5426v1.2214z"/>
  </g>
  <path d="m14.793 25.697c-0.31365 0.67957-1.5682 3.2672-4.6524 3.2672-3.2149 0-5.2013-2.8228-5.2013-5.7502 0-2.7444 1.8558-5.6457 5.1752-5.6457 2.666 0 4.1297 1.9342 4.6786 3.3717h5.1752c-0.52275-3.0319-3.7638-7.7105-9.8276-7.7105-6.3252 0-10.141 5.0706-10.141 10.011 0 5.2275 4.1297 10.063 10.194 10.063 4.6786 0 8.6514-3.0319 9.7754-7.606z" stroke-width=".65343"/>
  <path d="m21.283 32.937h4.3388v-19.342h-4.3388z" stroke-width=".65343"/>
 </g>
 <path d="m33.53 16.301c-0.0024 0.77056-0.19979 1.769-1.1183 1.988-3.6323 1.0491-5.3888 4.4232-5.3888 7.3815 0 3.5547 2.5353 7.7101 7.815 7.7101 5.2797 0 7.815-4.1554 7.815-7.7101 0-2.9673-1.7668-6.3533-5.4219-7.3913-0.66312-0.17458-1.1467-1.1825-1.1467-1.9782z" fill="url(#radialGradient11184)" stroke-width=".65343"/>
 <g fill="#fff" stroke-width=".65343">
  <path d="m57.483 18.431h-4.3388v7.9719c0 2.3001-1.2284 2.9535-2.483 2.9535-2.3262 0-2.3262-1.908-2.3262-2.9012v-8.0242h-4.3388v8.6776c0 1.9864 0.15682 3.0319 1.3069 4.4695 1.2807 1.6205 3.3717 1.8296 4.2604 1.8296 1.0978 0 2.8751-0.15682 3.7638-2.0126h0.0523v1.5421h4.1036z"/>
  <path d="m74.673 13.595h-4.3388v6.0639c-0.47047-0.47047-1.6989-1.7251-4.2604-1.7251-3.6854 0-7.1878 2.7967-7.1878 7.7105 0 4.3649 2.8751 7.7628 7.2662 7.7628 2.9274 0 3.9729-1.4376 4.3388-2.0387h0.0523v1.5682h4.1297zm-11.448 12.023c0-1.6728 1.1762-3.6331 3.6854-3.6331 2.4046 0 3.6592 1.8819 3.6592 3.6331 0 1.516-0.99321 3.7376-3.7115 3.7376-2.0387 0-3.6331-1.4898-3.6331-3.7376z"/>
  <path d="m76.753 32.937h4.3388v-7.8935c0-0.88867 0-3.0319 2.483-3.0319 2.2739 0 2.2739 1.9864 2.2739 3.0058v7.9196h4.3388v-9.0696c0-2.849-0.88866-3.999-1.6728-4.6786-0.78412-0.67957-2.3262-1.2546-3.7115-1.2546-2.5876 0-3.5024 1.333-3.9467 2.0387h-0.0523v-1.5421h-4.0513z"/>
  <path d="m101.75 28.389c-0.60116 0.75798-1.3069 1.3591-2.6399 1.3591-1.6989 0-3.1365-1.0194-3.3978-2.7444h10.873c0.0523-0.33978 0.10455-0.57502 0.10455-1.15 0-4.4172-3.241-7.9196-7.6582-7.9196s-7.606 3.7376-7.606 7.7889c0 4.3127 3.5285 7.6844 7.6844 7.6844 1.4898 0 2.9274-0.44433 4.1297-1.3069 1.2284-0.83639 2.2478-2.091 2.9535-3.7115zm-5.9854-4.3127c0.18296-0.86253 1.0455-2.483 3.2933-2.483s3.1103 1.6205 3.2933 2.483z"/>
  <path d="m113.24 13.595h-4.3388v4.8354h-2.1433v3.2933h2.1433v11.213h4.3388v-11.213h2.091v-3.2933h-2.091z"/>
 </g>
 <path d="m33.5 15.221 2.6435 1e-3c0.19133 0.0088 0.19278 0.07505 0.19085 0.181v1.4643l-3.0157-1e-3v-1.4475c0.0038-0.1876-0.0026-0.19165 0.18137-0.19779z" fill="#fc0" stroke-width="10.961"/>
</svg>
