<?xml version="1.0" encoding="UTF-8"?>
<!-- Created with Inkscape (http://www.inkscape.org/) -->
<svg width="115.33mm" height="31.345mm" version="1.1" viewBox="0 0 115.33 31.345" xmlns="http://www.w3.org/2000/svg">
 <g transform="translate(205.32,48.673)" fill="#fff" stroke-width=".27649" aria-label="DATA PORTAL">
  <path d="m-198.31-17.437h-2.7256v-8.0434h2.7806q1.1979 0 2.058 0.48308 0.86404 0.47915 1.3275 1.3785t0.46344 2.1522q0 1.2568-0.46737 2.1601-0.46344 0.90331-1.3393 1.3864-0.87189 0.48308-2.0973 0.48308zm-1.2686-1.2607h1.1979q0.84047 0 1.4021-0.30634 0.56162-0.31027 0.8444-0.92295 0.28278-0.61661 0.28278-1.5396 0-0.92295-0.28278-1.5317-0.28278-0.61268-0.83655-0.9151-0.54984-0.30634-1.3668-0.30634h-1.2411z"/>
  <path d="m-188.78-17.437h-1.5553l2.8317-8.0434h1.7988l2.8356 8.0434h-1.5553l-2.1483-6.3939h-0.0628zm0.0511-3.1537h4.2416v1.1704h-4.2416z"/>
  <path d="m-179.5-24.259v-1.2214h6.4175v1.2214h-2.4861v6.822h-1.4453v-6.822z"/>
  <path d="m-168.15-17.437h-1.5553l2.8317-8.0434h1.7988l2.8356 8.0434h-1.5553l-2.1483-6.3939h-0.0628zm0.0511-3.1537h4.2416v1.1704h-4.2416z"/>
  <path d="m-151.16-17.437v-8.0434h3.0163q0.92688 0 1.5553 0.34562 0.63232 0.34562 0.95437 0.95044 0.32598 0.6009 0.32598 1.3668 0 0.77371-0.32598 1.3746t-0.96222 0.94652q-0.63625 0.34169-1.5671 0.34169h-1.9991v-1.1979h1.8027q0.54199 0 0.8876-0.18852 0.34562-0.18852 0.51057-0.51842 0.16888-0.3299 0.16888-0.758 0-0.42809-0.16888-0.75407-0.16495-0.32598-0.51449-0.50664-0.34562-0.18459-0.89153-0.18459h-1.3353v6.8259z"/>
  <path d="m-133.22-21.459q0 1.3-0.487 2.2269-0.48308 0.92295-1.3196 1.4139-0.83262 0.49093-1.8891 0.49093t-1.893-0.49093q-0.83262-0.49486-1.3196-1.4178-0.48308-0.92688-0.48308-2.2229 0-1.3 0.48308-2.2229 0.487-0.92688 1.3196-1.4178 0.83655-0.49093 1.893-0.49093t1.8891 0.49093q0.83655 0.49093 1.3196 1.4178 0.487 0.92295 0.487 2.2229zm-1.4649 0q0-0.9151-0.2867-1.5435-0.28278-0.63232-0.78549-0.95437-0.50272-0.32598-1.1586-0.32598t-1.1586 0.32598q-0.50271 0.32205-0.78942 0.95437-0.28277 0.62839-0.28277 1.5435t0.28277 1.5474q0.28671 0.62839 0.78942 0.95437 0.50272 0.32205 1.1586 0.32205t1.1586-0.32205q0.50271-0.32598 0.78549-0.95437 0.2867-0.63232 0.2867-1.5474z"/>
  <path d="m-128.2-17.437v-8.0434h3.0163q0.92688 0 1.5553 0.32205 0.63232 0.32205 0.95437 0.90331 0.32598 0.57734 0.32598 1.3471 0 0.77371-0.3299 1.3432-0.32598 0.56555-0.96223 0.87582-0.63625 0.30634-1.5631 0.30634h-2.1483v-1.2097h1.9519q0.54199 0 0.88761-0.14924 0.34561-0.15317 0.51057-0.4438 0.16888-0.29456 0.16888-0.72265t-0.16888-0.73051q-0.16888-0.30634-0.5145-0.46344-0.34562-0.16102-0.89153-0.16102h-1.3353v6.8259zm4.1552-3.6447 1.9912 3.6447h-1.626l-1.9559-3.6447z"/>
  <path d="m-117.72-24.259v-1.2214h6.4174v1.2214h-2.4861v6.822h-1.4453v-6.822z"/>
  <path d="m-106.38-17.437h-1.5553l2.8317-8.0434h1.7988l2.8356 8.0434h-1.5553l-2.1483-6.3939h-0.0628zm0.0511-3.1537h4.2416v1.1704h-4.2416z"/>
  <path d="m-95.768-17.437v-8.0434h1.4571v6.822h3.5426v1.2214z"/>
 </g>
 <g fill="#ff8080" stroke-width=".62737" aria-label="Skynet">
  <path d="m22.36 5.3636c0-2.0578-1.6814-3.714-3.714-3.714h-10.64c-2.0578 0-3.714 1.6563-3.714 3.714v3.5635c0 2.0578 1.6563 3.714 3.714 3.714h10.414v3.1619h-10.239v-1.4806h-3.8897v1.6814c0 2.0578 1.6563 3.714 3.714 3.714h10.64c2.0327 0 3.714-1.6563 3.714-3.714v-3.5635c0-2.0578-1.6814-3.714-3.714-3.714h-10.465v-3.1619h10.239v1.4806h3.9399z"/>
  <path d="m38.442 5.1628-4.9437 5.3452h-1.9574v-10.113h-3.8395v19.323h3.8395v-5.3452h1.9574l4.9437 5.3452h3.8646v-1.3049l-5.4205-5.9726 5.4205-5.9726v-1.3049z"/>
  <path d="m61.099 16.063v-10.85h-3.8395v5.4298h-7.1018v-5.4298h-3.8395v5.6305c0 1.9825 1.6563 3.6387 3.6638 3.6387h7.2775v1.3551h-8.6326v3.8646h8.8334c2.0076 0 3.6387-1.6312 3.6387-3.6387z"/>
  <path d="m76.956 5.1628h-11.117v14.555h3.8395v-10.715h7.0767v10.715h3.8395v-10.916c0-1.9825-1.6312-3.6387-3.6387-3.6387z"/>
  <path d="m96.3 5.1628h-7.4783c-1.9825 0-3.6387 1.6563-3.6387 3.6387v7.2775c0 1.9825 1.6563 3.6387 3.6387 3.6387h11.117v-3.8395h-10.916v-1.5057h10.916v-5.571c0-1.9825-1.6312-3.6387-3.6387-3.6387zm-7.2775 5.8471v-2.0076h7.0767v2.0076z"/>
  <path d="m114.54 9.0023v-3.8395h-5.3954v-4.3163h-3.8395v15.233c0 1.9825 1.6312 3.6387 3.6638 3.6387h5.571v-3.8395h-5.3954v-6.876z"/>
 </g>
</svg>
